<svg height="512" viewBox="0 0 64 64" width="512" xmlns="http://www.w3.org/2000/svg"><g id="Clothing-fashion-store-shop-shopping-commerce"><path d="m4 15h56v46h-56z" fill="#00ddc2"/><path d="m24 29h32v28h-32z" fill="#57a4ff"/><path d="m60 4v3h-56v-3a1 1 0 0 1 1-1h54a1 1 0 0 1 1 1z" fill="#ffda44"/><path d="m3 7h58v8h-58z" fill="#ff7956"/><path d="m8 36h12v3h-12z" fill="#acabb1"/><path d="m8 33h12v3h-12z" fill="#e0e0e2"/><path d="m8 39h12v22h-12z" fill="#c6c5ca"/><path d="m52 16h-48v6a4 4 0 0 0 8 0 4 4 0 0 0 8 0 4 4 0 0 0 8 0 4 4 0 0 0 8 0 4 4 0 0 0 8 0 4 4 0 0 0 8 0 4 4 0 0 0 8 0v-6z" fill="#2d2d30"/><path d="m20 15v6a4 4 0 0 1 -8 0v-6z" fill="#ffda44"/><path d="m36 15v6a4 4 0 0 1 -8 0v-6z" fill="#ffda44"/><path d="m52 15v6a4 4 0 0 1 -8 0v-6z" fill="#ffda44"/><g fill="#ff9478"><path d="m60 15v6a4 4 0 0 1 -8 0v-6z"/><path d="m44 15v6a4 4 0 0 1 -8 0v-6z"/><path d="m28 15v6a4 4 0 0 1 -8 0v-6z"/><path d="m12 15v6a4 4 0 0 1 -8 0v-6z"/></g><path d="m33 29-9 8v5l14-13z" fill="#81bbff"/><path d="m44.882 29-20.882 19.094v6.906l28-26z" fill="#81bbff"/><rect fill="#ff9f85" height="3" rx="1.5" width="11" x="5" y="9"/><path d="m9 36h-1l2-3h1z" fill="#fff"/><path d="m12 36h-1l2-3h1z" fill="#fff"/><path d="m48 40v13h-16v-13l-4-1 1-6h22l1 6z" fill="#ff5023"/><path d="m41 41h4v4h-4z" fill="#ffda44"/><path d="m36 33h8a4 4 0 0 1 -8 0z" fill="#cf3109"/><path d="m10 47h2v4h-2z"/><path d="m62 15v-8a1 1 0 0 0 -1-1v-2a2.006 2.006 0 0 0 -2-2h-54a2.006 2.006 0 0 0 -2 2v2a1 1 0 0 0 -1 1v8a1 1 0 0 0 1 1v44h-1v2h60v-2h-1v-44a1 1 0 0 0 1-1zm-57-11h54v2h-54zm14 56h-10v-20h10zm0-22h-10v-1h10zm0-3h-10v-1h10zm40 25h-38v-27a1 1 0 0 0 -1-1h-12a1 1 0 0 0 -1 1v27h-2v-35.03a4.924 4.924 0 0 0 3 1.03 4.994 4.994 0 0 0 4-2.03 4.956 4.956 0 0 0 8 0 4.956 4.956 0 0 0 8 0 4.956 4.956 0 0 0 8 0 4.956 4.956 0 0 0 8 0 4.956 4.956 0 0 0 8 0 4.994 4.994 0 0 0 4 2.03 4.924 4.924 0 0 0 3-1.03zm-54-39v-5h6v5a3 3 0 0 1 -6 0zm8 0v-5h6v5a3 3 0 0 1 -6 0zm8 0v-5h6v5a3 3 0 0 1 -6 0zm8 0v-5h6v5a3 3 0 0 1 -6 0zm8 0v-5h6v5a3 3 0 0 1 -6 0zm8 0v-5h6v5a3 3 0 0 1 -6 0zm14 0a3 3 0 0 1 -6 0v-5h6zm1-7h-56v-6h56z"/><path d="m56 28h-32a1 1 0 0 0 -1 1v28a1 1 0 0 0 1 1h32a1 1 0 0 0 1-1v-28a1 1 0 0 0 -1-1zm-1 28h-30v-26h30z"/><path d="m51.99 32.84a1 1 0 0 0 -.99-.84h-22a1 1 0 0 0 -.99.84l-1 6a1 1 0 0 0 .75 1.13l3.24.81v12.22a1 1 0 0 0 1 1h16a1 1 0 0 0 1-1v-12.22l3.24-.81a1 1 0 0 0 .75-1.13zm-9.17 1.16a2.988 2.988 0 0 1 -5.64 0zm4.94 5.03a1 1 0 0 0 -.76.97v12h-14v-12a1 1 0 0 0 -.76-.97l-3.1-.78.71-4.25h5.25a5 5 0 0 0 9.8 0h5.25l.71 4.25z"/><path d="m41 46h4a1 1 0 0 0 1-1v-4a1 1 0 0 0 -1-1h-4a1 1 0 0 0 -1 1v4a1 1 0 0 0 1 1zm1-4h2v2h-2z"/></g></svg>